<svg width="45" height="43" viewBox="0 0 45 43" fill="none" xmlns="http://www.w3.org/2000/svg">
<path fill-rule="evenodd" clip-rule="evenodd" d="M34.6667 41.9115C40.8832 37.9077 45 30.9253 45 22.9814C45 10.555 34.9264 0.481445 22.5 0.481445C10.0736 0.481445 0 10.555 0 22.9814C0 31.344 4.56214 38.641 11.3333 42.5193V41.1921C11.3333 38.9819 12.2113 36.8623 13.7741 35.2995C15.3369 33.7367 17.4565 32.8587 19.6667 32.8587H26.3333C28.5435 32.8587 30.6631 33.7367 32.2259 35.2995C33.7887 36.8623 34.6667 38.9819 34.6667 41.1921V41.9115ZM27.6298 14.2631C26.2593 13.3475 24.6482 12.8587 23 12.8587C20.8526 12.8588 18.7881 13.688 17.237 15.1732C15.686 16.6584 14.7682 18.685 14.675 20.8304L14.6667 21.1921C14.6667 22.8402 15.1554 24.4514 16.0711 25.8218C16.9868 27.1922 18.2883 28.2603 19.811 28.8911C21.3337 29.5218 23.0092 29.6868 24.6258 29.3653C26.2423 29.0437 27.7271 28.2501 28.8926 27.0846C30.058 25.9192 30.8517 24.4343 31.1732 22.8178C31.4948 21.2013 31.3297 19.5257 30.699 18.003C30.0683 16.4803 29.0002 15.1788 27.6298 14.2631Z" fill="#DBC891"/>
</svg>
